<svg width="1920" height="1080" viewBox="0 0 1920 1080" fill="none" xmlns="http://www.w3.org/2000/svg">
<path d="M345.688 813.116C341.61 812.997 338.096 816.145 337.098 820.473C330.786 820.966 323.574 821.133 315.657 820.631C311.254 820.344 307.067 819.882 303.152 819.309C303.174 818.552 303.185 817.787 303.185 817.022C303.185 813.301 302.913 809.643 302.415 806.064C304.41 804.525 306.905 802.908 309.93 801.522C315.169 799.099 320.071 798.239 323.856 797.991C325.711 802.238 329.973 804.709 334.051 803.633C338.649 802.423 341.285 797.186 339.918 791.935C338.562 786.682 333.747 783.399 329.149 784.61C324.962 785.718 322.403 790.165 323.01 794.923C319.702 796.82 314.778 798.875 308.683 799.027C305.679 799.107 303.044 798.7 300.907 798.175C299.551 792.619 297.61 787.296 295.126 782.276C297.751 779.885 300.853 777.351 304.486 774.904C309.746 771.35 314.822 768.808 319.279 766.982C322.186 770.41 326.817 771.549 330.396 769.462C334.506 767.07 335.656 761.308 332.977 756.606C330.298 751.905 324.778 750.04 320.667 752.439C317.099 754.518 315.754 759.141 317.229 763.397C313.401 766.393 308.694 769.556 303.044 772.378C299.204 774.306 295.528 775.773 292.198 776.888C289.476 772.29 286.298 768.002 282.719 764.089C284.097 759.053 286.417 753.172 290.376 747.274C294.096 741.76 298.217 737.735 301.72 734.906C305.581 737.321 310.44 736.946 313.206 733.766C316.351 730.164 315.635 724.339 311.59 720.754C307.566 717.159 301.753 717.166 298.619 720.769C295.853 723.949 296.07 728.85 298.944 732.427C296.677 736.205 293.25 740.891 288.218 745.354C282.665 750.279 277.09 753.228 272.839 754.981C268.002 751.243 262.731 748.071 257.102 745.561C257.916 743.273 259 740.971 260.421 738.708C261.56 736.915 262.785 735.337 264.022 733.958C268.306 735.719 273.11 734.452 275.268 730.763C277.698 726.642 275.919 721.047 271.299 718.275C266.679 715.501 260.974 716.593 258.545 720.721C256.419 724.348 257.536 729.112 260.974 732.093C260.258 734.006 259.391 735.991 258.349 738.014C257.167 740.341 255.888 742.486 254.532 744.469C253.957 744.238 253.393 744.015 252.818 743.808C246.116 741.274 238.969 739.673 231.518 739.13C230.292 735.799 229.229 732.107 228.481 728.053C226.963 719.779 227.245 712.579 227.95 707.171C232.331 706.323 235.606 702.849 235.606 698.686C235.606 693.889 231.258 690 225.889 690C220.51 690 216.15 693.889 216.15 698.686C216.15 702.921 219.544 706.443 224.034 707.212C225.01 712.542 225.65 720.002 224.154 728.65C223.481 732.457 222.494 735.926 221.345 739.067C214.198 739.473 207.332 740.866 200.847 743.11C199.947 741.661 199.133 740.141 198.407 738.347C196.975 734.794 196.357 731.465 196.107 728.694C200.305 726.486 202.463 721.854 200.988 717.757C199.361 713.251 193.949 711.106 188.895 712.969C183.852 714.832 181.076 719.994 182.713 724.501C184.123 728.389 188.342 730.512 192.713 729.825C193.992 732.478 195.218 735.536 196.172 739.011C196.693 740.851 197.073 742.65 197.365 744.41C191.476 746.767 185.956 749.841 180.88 753.519C178.212 751.568 175.479 749.303 172.779 746.648C166.564 740.537 162.421 734.269 159.699 729.249C162.714 725.879 163.246 721.053 160.719 717.728C157.823 713.924 152.021 713.522 147.758 716.831C143.507 720.14 142.401 725.905 145.286 729.709C147.856 733.069 152.671 733.768 156.706 731.603C160.632 735.161 165.74 740.773 169.688 748.84C171.499 752.53 172.757 756.117 173.646 759.463C172.833 760.219 172.009 760.999 171.217 761.795C167.258 765.809 163.712 770.253 160.675 775.063C158.886 774.542 157.031 773.912 155.133 773.141C148.962 770.63 144.179 767.429 140.709 764.64C142.184 760.303 140.741 755.624 137.076 753.595C132.922 751.288 127.456 753.278 124.874 758.039C122.282 762.798 123.562 768.527 127.738 770.833C131.393 772.86 136.056 771.565 138.887 767.988C143.095 769.459 148.344 771.818 153.756 775.692C155.372 776.849 156.847 778.039 158.224 779.235C153.94 787.035 150.947 795.656 149.526 804.808C145.828 805.127 141.837 805.28 137.553 805.147C131.436 804.957 125.915 804.233 121.089 803.29C120.981 798.504 117.814 794.498 113.519 794.042C108.791 793.54 104.507 797.511 103.943 802.91C103.389 808.309 106.762 813.091 111.48 813.591C115.688 814.037 119.528 810.938 120.731 806.446C125.677 806.547 131.23 806.994 137.249 808.041C141.424 808.765 145.275 809.689 148.843 810.716C148.669 812.794 148.593 814.896 148.593 817.022C148.593 822.07 149.06 827.007 149.971 831.793C145.871 834.532 140.232 837.637 133.041 839.818C126.74 841.73 121.068 842.381 116.545 842.521C114.918 838.265 110.884 835.61 106.795 836.407C102.142 837.316 99.1815 842.373 100.201 847.703C101.22 853.034 105.83 856.617 110.482 855.708C114.517 854.921 117.261 851.034 117.272 846.553C121.903 845.032 127.369 843.604 133.583 842.675C140.72 841.607 147.129 841.454 152.53 841.691C154.689 848.296 157.725 854.5 161.467 860.18C159.699 861.592 157.736 862.986 155.513 864.289C151.272 866.785 147.205 868.338 143.67 869.342C141.284 865.486 136.815 863.676 132.954 865.251C128.562 867.053 126.62 872.591 128.638 877.62C129.907 880.775 132.434 882.991 135.232 883.748C136.88 884.202 138.626 884.147 140.264 883.478C140.741 883.278 141.208 883.031 141.631 882.736C144.841 880.586 146.207 876.128 144.852 871.875C148.192 870.134 152.097 868.409 156.587 866.987C159.482 866.075 162.237 865.409 164.829 864.914C167.193 868.004 169.796 870.903 172.584 873.579C172.844 873.835 173.115 874.09 173.375 874.328C171.488 878.584 168.647 883.756 164.363 888.999C160.165 894.132 155.806 897.869 152.129 900.509C148.452 897.869 143.626 897.926 140.665 900.882C137.282 904.253 137.607 910.119 141.392 913.984C145.155 917.84 150.969 918.24 154.341 914.868C157.281 911.942 157.422 907.131 154.927 903.393C157.812 899.59 161.575 895.304 166.38 891.072C171.553 886.53 176.651 883.167 181.097 880.688C186.976 884.911 193.472 888.33 200.402 890.777C200.131 893.414 199.665 896.259 198.895 899.248C197.224 905.76 194.73 910.979 192.463 914.821C188.006 913.919 183.602 915.976 182.095 919.913C180.392 924.384 183.071 929.596 188.082 931.556C193.081 933.516 198.526 931.476 200.25 926.997C201.736 923.108 199.914 918.662 196.107 916.286C197.181 911.656 198.884 906.181 201.573 900.299C202.897 897.432 204.296 894.817 205.727 892.435C211.074 893.893 216.638 894.786 222.386 895.033C223.319 899.576 224.078 904.66 224.446 910.214C225 918.478 224.555 925.794 223.774 931.834C219.414 932.688 216.15 936.162 216.15 940.315C216.15 945.112 220.499 949 225.889 949C231.258 949 235.607 945.112 235.607 940.315C235.607 936.178 232.364 932.711 228.025 931.842C227.299 925.666 226.908 918.367 227.321 910.214C227.603 904.714 228.221 899.639 229.002 895.048C235.01 894.817 240.834 893.886 246.398 892.331C246.875 893.159 247.341 894.02 247.797 894.906C250.823 900.746 252.45 906.222 253.328 910.604C249.456 912.876 247.482 917.291 248.881 921.228C250.465 925.746 255.866 927.93 260.931 926.112C265.985 924.288 268.804 919.147 267.21 914.629C265.8 910.621 261.386 908.452 256.874 909.282C254.803 905.687 252.395 900.26 251.56 893.311C251.452 892.45 251.376 891.606 251.332 890.777C257.525 888.609 263.36 885.653 268.729 882.035C272.188 884.879 275.832 888.274 279.455 892.307C285.029 898.507 289.085 904.62 292.014 909.815C289.042 913.178 288.532 917.968 291.038 921.275C293.944 925.077 299.736 925.475 303.998 922.167C308.249 918.861 309.356 913.099 306.471 909.29C303.965 906.006 299.291 905.257 295.322 907.258C291.048 902.882 286.309 897.344 281.743 890.538C278.793 886.138 276.353 881.868 274.347 877.858C276.505 876.098 278.565 874.225 280.539 872.24C283.749 868.989 286.689 865.458 289.292 861.681C294.096 863.037 299.638 865.021 305.516 868.001C311.188 870.863 315.917 874.01 319.724 876.942C318.281 881.199 319.648 885.804 323.227 887.86C327.348 890.243 332.847 888.346 335.515 883.637C338.183 878.919 336.99 873.173 332.869 870.789C329.268 868.711 324.594 869.899 321.709 873.389C317.457 871.754 312.295 869.276 306.948 865.475C301.395 861.53 297.198 857.298 294.161 853.648C296.211 849.76 297.946 845.672 299.334 841.415C301.634 841.495 304.074 841.703 306.59 842.085C313.086 843.073 318.498 844.93 322.663 846.778C322.305 851.322 324.843 855.481 328.867 856.525C333.465 857.721 338.28 854.429 339.625 849.17C340.959 843.911 338.324 838.683 333.715 837.487C329.68 836.434 325.461 838.858 323.585 843.041C319.171 842.675 313.499 841.694 307.306 839.272C304.963 838.347 302.794 837.319 300.82 836.243C301.807 832.3 302.501 828.242 302.859 824.082C306.861 823.756 311.113 823.548 315.592 823.54C323.487 823.517 330.667 824.09 336.968 824.935C337.727 829.31 341.057 832.641 345.124 832.77C349.874 832.904 353.855 828.617 353.996 823.19C354.147 817.764 350.427 813.252 345.688 813.116Z" fill="#FFD0D0"/>
</svg>
