<svg width="21" height="18" viewBox="0 0 21 18" fill="none" xmlns="http://www.w3.org/2000/svg">
<path d="M20.1131 4.31473C20.2359 1.71205 19.266 0.373883 17.2158 0.312499C14.4412 0.226561 12.5629 1.78571 11.5807 5.00223C12.0964 4.79353 12.5874 4.68303 13.0662 4.68303C14.0729 4.68303 14.5149 5.24777 14.4044 6.38951C14.343 7.07701 13.9011 8.0837 13.0662 9.4096C12.2191 10.7355 11.593 11.3862 11.1756 11.3862C10.6354 11.3862 10.1566 10.3672 9.70239 8.32924C9.55507 7.73995 9.27271 6.20536 8.89213 3.75C8.52382 1.47879 7.57851 0.42299 6.01936 0.570311C5.35641 0.631696 4.36199 1.2087 3.06065 2.36272C2.09079 3.20982 1.12092 4.09375 0.138777 4.9654L1.08409 6.16853C1.98029 5.54241 2.49592 5.23549 2.64324 5.23549C3.33074 5.23549 3.98141 6.30357 4.5707 8.45201C5.11088 10.4286 5.65105 12.4051 6.19123 14.3694C6.98922 16.5179 7.97137 17.5982 9.13766 17.5982C11.0283 17.5982 13.3118 15.8304 16.0372 12.3069C18.6644 8.91853 20.0272 6.25446 20.1131 4.31473Z" fill="#035755"/>
</svg>
