<svg width="20" height="16" viewBox="0 0 20 16" fill="none" xmlns="http://www.w3.org/2000/svg">
<path d="M19.8922 1.96428C19.1801 2.2712 18.4067 2.49219 17.6087 2.57812C18.4312 2.08705 19.0574 1.31362 19.352 0.392857C18.5908 0.847097 17.7315 1.17857 16.8353 1.35045C16.1109 0.577008 15.0797 0.0982139 13.9379 0.0982139C11.7404 0.0982139 9.97253 1.87835 9.97253 4.06362C9.97253 4.37053 10.0094 4.67745 10.0707 4.9721C6.78057 4.80022 3.84642 3.22879 1.89441 0.822544C1.55066 1.41183 1.35423 2.08705 1.35423 2.82366C1.35423 4.19866 2.05401 5.41406 3.12209 6.12612C2.47142 6.10156 1.85758 5.91741 1.32968 5.62277C1.32968 5.63504 1.32968 5.6596 1.32968 5.67187C1.32968 7.59933 2.6924 9.19531 4.50936 9.56362C4.17789 9.64955 3.82186 9.69866 3.46584 9.69866C3.20803 9.69866 2.96249 9.67411 2.71695 9.63728C3.2203 11.2087 4.68124 12.3504 6.42454 12.3873C5.06182 13.4554 3.35535 14.0815 1.50155 14.0815C1.17008 14.0815 0.863159 14.0692 0.543963 14.0324C2.29954 15.1618 4.3866 15.8125 6.63325 15.8125C13.9257 15.8125 17.9156 9.77232 17.9156 4.53013C17.9156 4.35826 17.9156 4.18638 17.9033 4.01451C18.6768 3.44978 19.352 2.75 19.8922 1.96428Z" fill="#035755"/>
</svg>
