<svg width="23" height="16" viewBox="0 0 23 16" fill="none" xmlns="http://www.w3.org/2000/svg">
<path d="M9.58121 10.8036V4.62835L15.5232 7.73437L9.58121 10.8036ZM11.8524 0.220982C7.22407 0.220982 4.15487 0.441964 4.15487 0.441964C3.72519 0.491071 2.77987 0.491071 1.94505 1.375C1.94505 1.375 1.26983 2.03795 1.0734 3.56027C0.84014 5.3404 0.852417 7.12054 0.852417 7.12054V8.79018C0.852417 8.79018 0.84014 10.5703 1.0734 12.3504C1.26983 13.8605 1.94505 14.5357 1.94505 14.5357C2.77987 15.4074 3.88478 15.3828 4.37585 15.4688C4.37585 15.4688 6.13144 15.6406 11.8524 15.6897C16.4808 15.6897 19.55 15.4565 19.55 15.4565C19.9797 15.4074 20.925 15.4074 21.7598 14.5357C21.7598 14.5357 22.435 13.8605 22.6314 12.3504C22.8647 10.5703 22.8524 8.79018 22.8524 8.79018V7.12054C22.8524 7.12054 22.8647 5.3404 22.6314 3.56027C22.435 2.03795 21.7598 1.375 21.7598 1.375C20.925 0.491071 19.9797 0.491071 19.55 0.441964C19.55 0.441964 16.4808 0.220982 11.8524 0.220982Z" fill="#F44A45"/>
</svg>
