<svg width="1057" height="549" viewBox="0 0 1057 549" fill="none" xmlns="http://www.w3.org/2000/svg">
<path opacity="0.89" d="M528.971 231.419C527.001 231.362 525.298 232.881 524.816 234.969C521.758 235.208 518.268 235.289 514.439 235.046C512.298 234.908 510.273 234.685 508.374 234.408C508.384 234.042 508.391 233.673 508.391 233.304C508.391 231.508 508.265 229.743 508.02 228.016C508.985 227.273 510.195 226.493 511.656 225.823C514.194 224.654 516.573 224.239 518.401 224.119C519.301 226.17 521.36 227.361 523.341 226.843C525.567 226.258 526.837 223.731 526.182 221.196C525.526 218.662 523.192 217.077 520.966 217.662C518.938 218.196 517.701 220.343 517.993 222.639C516.389 223.554 514.007 224.546 511.058 224.62C509.597 224.658 508.323 224.462 507.29 224.208C506.634 221.527 505.689 218.958 504.49 216.535C505.761 215.381 507.263 214.158 509.023 212.977C511.571 211.262 514.028 210.035 516.185 209.154C517.592 210.808 519.838 211.358 521.567 210.35C523.555 209.196 524.119 206.415 522.821 204.147C521.52 201.877 518.846 200.977 516.858 202.135C515.125 203.139 514.48 205.37 515.193 207.423C513.341 208.87 511.061 210.396 508.326 211.758C506.464 212.689 504.684 213.396 503.073 213.935C501.758 211.715 500.212 209.646 498.483 207.758C499.149 205.327 500.273 202.488 502.19 199.643C503.987 196.981 505.988 195.039 507.687 193.673C509.556 194.839 511.907 194.658 513.246 193.123C514.768 191.385 514.418 188.573 512.465 186.842C510.514 185.108 507.697 185.112 506.182 186.85C504.837 188.385 504.949 190.75 506.338 192.477C505.241 194.3 503.583 196.562 501.143 198.715C498.455 201.093 495.751 202.516 493.695 203.362C491.357 201.558 488.806 200.027 486.077 198.816C486.475 197.712 486.998 196.6 487.684 195.508C488.235 194.643 488.826 193.881 489.427 193.216C491.507 194.066 493.828 193.454 494.874 191.673C496.053 189.685 495.193 186.985 492.954 185.646C490.719 184.308 487.953 184.835 486.777 186.827C485.747 188.577 486.291 190.877 487.953 192.315C487.606 193.238 487.185 194.197 486.685 195.173C486.114 196.296 485.489 197.331 484.833 198.289C484.558 198.177 484.28 198.069 484.004 197.97C480.753 196.747 477.294 195.974 473.689 195.712C473.097 194.104 472.581 192.323 472.221 190.366C471.483 186.373 471.619 182.897 471.959 180.287C474.079 179.878 475.67 178.202 475.67 176.192C475.67 173.877 473.559 172 470.957 172C468.357 172 466.247 173.877 466.247 176.192C466.247 178.236 467.895 179.936 470.066 180.308C470.539 182.879 470.848 186.48 470.117 190.654C469.795 192.491 469.319 194.166 468.762 195.681C465.306 195.878 461.98 196.55 458.837 197.632C458.398 196.933 458.008 196.2 457.658 195.334C456.961 193.62 456.659 192.013 456.54 190.675C458.572 189.61 459.622 187.374 458.901 185.396C458.116 183.221 455.493 182.187 453.05 183.086C450.607 183.985 449.265 186.476 450.053 188.651C450.733 190.528 452.778 191.552 454.899 191.221C455.517 192.501 456.108 193.978 456.577 195.654C456.822 196.542 457.009 197.41 457.151 198.26C454.301 199.397 451.623 200.881 449.166 202.656C447.872 201.714 446.55 200.621 445.245 199.34C442.238 196.391 440.23 193.366 438.912 190.943C440.373 189.316 440.628 186.987 439.404 185.382C438.001 183.547 435.195 183.353 433.132 184.95C431.07 186.546 430.533 189.329 431.936 191.164C433.173 192.787 435.511 193.124 437.457 192.079C439.364 193.796 441.834 196.505 443.75 200.398C444.624 202.178 445.235 203.91 445.66 205.525C445.266 205.89 444.872 206.266 444.491 206.65C442.568 208.587 440.855 210.732 439.384 213.054C438.518 212.802 437.621 212.499 436.703 212.126C433.71 210.914 431.392 209.37 429.714 208.024C430.427 205.931 429.734 203.672 427.957 202.693C425.942 201.58 423.295 202.54 422.045 204.837C420.795 207.135 421.413 209.9 423.431 211.012C425.205 211.991 427.461 211.365 428.834 209.639C430.872 210.349 433.407 211.488 436.03 213.357C436.812 213.916 437.532 214.49 438.198 215.068C436.122 218.832 434.675 222.992 433.985 227.409C432.191 227.564 430.257 227.637 428.185 227.573C425.225 227.481 422.551 227.132 420.217 226.677C420.163 224.367 418.627 222.433 416.544 222.213C414.26 221.972 412.184 223.888 411.916 226.494C411.641 229.099 413.278 231.407 415.562 231.649C417.597 231.864 419.459 230.368 420.037 228.2C422.436 228.249 425.127 228.465 428.042 228.97C430.057 229.319 431.929 229.765 433.652 230.261C433.57 231.264 433.53 232.278 433.53 233.304C433.53 235.741 433.757 238.124 434.199 240.433C432.218 241.754 429.479 243.253 426 244.306C422.949 245.229 420.2 245.543 418.012 245.61C417.227 243.556 415.273 242.275 413.292 242.66C411.036 243.099 409.602 245.54 410.098 248.112C410.591 250.685 412.82 252.414 415.079 251.975C417.03 251.596 418.358 249.72 418.365 247.556C420.608 246.822 423.251 246.134 426.262 245.684C429.724 245.169 432.826 245.096 435.436 245.21C436.486 248.397 437.954 251.392 439.765 254.134C438.912 254.815 437.954 255.488 436.887 256.117C434.831 257.321 432.86 258.071 431.151 258.555C429.989 256.694 427.828 255.821 425.963 256.581C423.832 257.45 422.891 260.123 423.873 262.55C424.485 264.073 425.708 265.142 427.06 265.508C427.859 265.727 428.705 265.7 429.496 265.377C429.734 265.281 429.955 265.162 430.159 265.019C431.719 263.981 432.378 261.83 431.719 259.778C433.336 258.937 435.225 258.105 437.407 257.419C438.803 256.978 440.138 256.658 441.396 256.418C442.541 257.909 443.798 259.309 445.15 260.601C445.279 260.723 445.405 260.846 445.534 260.962C444.62 263.016 443.244 265.512 441.168 268.043C439.136 270.519 437.023 272.323 435.246 273.596C433.462 272.323 431.127 272.35 429.69 273.777C428.056 275.404 428.212 278.235 430.043 280.1C431.868 281.962 434.681 282.154 436.316 280.527C437.733 279.116 437.804 276.793 436.594 274.988C437.994 273.154 439.819 271.085 442.15 269.042C444.651 266.85 447.121 265.227 449.272 264.031C452.119 266.069 455.266 267.719 458.626 268.9C458.49 270.173 458.262 271.546 457.892 272.988C457.087 276.131 455.874 278.65 454.773 280.504C452.619 280.069 450.488 281.061 449.758 282.961C448.929 285.119 450.223 287.635 452.649 288.581C455.075 289.528 457.715 288.543 458.544 286.381C459.268 284.504 458.381 282.358 456.543 281.212C457.063 278.977 457.882 276.335 459.187 273.497C459.825 272.112 460.505 270.85 461.202 269.7C463.787 270.404 466.485 270.835 469.265 270.954C469.72 273.146 470.087 275.6 470.264 278.281C470.529 282.269 470.315 285.8 469.937 288.716C467.824 289.129 466.247 290.805 466.247 292.808C466.247 295.122 468.357 297 470.96 297C473.563 297 475.67 295.122 475.67 292.808C475.67 290.812 474.1 289.139 472 288.719C471.646 285.738 471.453 282.216 471.653 278.281C471.793 275.627 472.092 273.177 472.472 270.962C475.377 270.85 478.197 270.4 480.892 269.65C481.123 270.05 481.354 270.465 481.572 270.892C483.033 273.712 483.821 276.354 484.249 278.47C482.373 279.565 481.422 281.696 482.091 283.596C482.866 285.777 485.476 286.831 487.932 285.954C490.382 285.073 491.741 282.592 490.97 280.411C490.287 278.477 488.15 277.431 485.965 277.831C484.963 276.096 483.797 273.477 483.393 270.123C483.342 269.708 483.304 269.3 483.281 268.9C486.284 267.854 489.108 266.427 491.704 264.681C493.382 266.054 495.149 267.693 496.906 269.639C499.604 272.631 501.564 275.581 502.981 278.088C501.544 279.712 501.293 282.023 502.512 283.619C503.916 285.454 506.719 285.646 508.785 284.05C510.847 282.454 511.388 279.673 509.984 277.834C508.771 276.25 506.508 275.889 504.585 276.854C502.516 274.742 500.222 272.069 498.01 268.785C496.58 266.662 495.401 264.6 494.426 262.666C495.472 261.816 496.474 260.912 497.422 259.954C498.982 258.385 500.406 256.681 501.663 254.858C503.987 255.512 506.675 256.469 509.522 257.908C512.268 259.289 514.554 260.808 516.399 262.223C515.699 264.277 516.365 266.5 518.095 267.492C520.093 268.643 522.753 267.727 524.048 265.454C525.339 263.177 524.765 260.404 522.767 259.254C521.02 258.25 518.764 258.823 517.361 260.508C515.302 259.719 512.804 258.523 510.215 256.689C507.524 254.785 505.496 252.743 504.021 250.981C505.017 249.104 505.856 247.131 506.525 245.077C507.643 245.116 508.819 245.216 510.045 245.4C513.188 245.877 515.808 246.774 517.823 247.666C517.65 249.858 518.88 251.866 520.834 252.369C523.056 252.946 525.39 251.358 526.039 248.819C526.685 246.281 525.404 243.758 523.181 243.181C521.217 242.673 519.175 243.843 518.275 245.862C516.131 245.685 513.392 245.212 510.395 244.042C509.254 243.597 508.204 243.1 507.246 242.581C507.725 240.677 508.061 238.719 508.234 236.712C510.171 236.554 512.234 236.454 514.398 236.45C518.227 236.439 521.7 236.715 524.751 237.123C525.118 239.235 526.732 240.843 528.703 240.904C531 240.969 532.926 238.9 532.998 236.281C533.073 233.662 531.272 231.485 528.971 231.419Z" fill="#FA5752" fill-opacity="0.82"/>
<path opacity="0.93" d="M182.81 127.743C179.781 127.654 177.166 130 176.424 133.224C171.725 133.593 166.363 133.717 160.479 133.343C157.19 133.13 154.078 132.785 151.16 132.357C151.175 131.793 151.186 131.223 151.186 130.653C151.186 127.88 150.992 125.154 150.617 122.488C152.099 121.342 153.958 120.136 156.203 119.102C160.103 117.298 163.758 116.656 166.567 116.472C167.95 119.638 171.114 121.478 174.158 120.677C177.578 119.774 179.531 115.872 178.523 111.959C177.515 108.046 173.929 105.599 170.509 106.502C167.392 107.327 165.491 110.641 165.94 114.186C163.476 115.599 159.816 117.131 155.284 117.244C153.039 117.304 151.081 117 149.494 116.608C148.486 112.47 147.035 108.502 145.192 104.761C147.145 102.98 149.452 101.091 152.157 99.2681C156.073 96.6198 159.847 94.7253 163.163 93.366C165.324 95.9187 168.775 96.7682 171.433 95.2119C174.487 93.431 175.354 89.137 173.359 85.6339C171.36 82.1297 167.251 80.7403 164.197 82.5275C161.534 84.0775 160.542 87.5225 161.638 90.6933C158.793 92.9265 155.289 95.2837 151.086 97.3863C148.225 98.8233 145.489 99.9158 143.015 100.747C140.994 97.3203 138.619 94.1257 135.961 91.21C136.984 87.457 138.713 83.0737 141.657 78.6799C144.419 74.5703 147.494 71.5717 150.105 69.4627C152.976 71.2626 156.589 70.9832 158.647 68.6138C160.986 65.93 160.448 61.589 157.446 58.9164C154.449 56.2385 150.121 56.2443 147.792 58.928C145.724 61.298 145.897 64.9501 148.032 67.6164C146.346 70.4311 143.798 73.9226 140.049 77.2482C135.919 80.9188 131.763 83.116 128.605 84.4225C125.012 81.6368 121.091 79.2732 116.899 77.403C117.51 75.6987 118.314 73.9823 119.368 72.296C120.214 70.9599 121.123 69.7834 122.047 68.7569C125.242 70.0692 128.808 69.1241 130.416 66.3749C132.228 63.3049 130.907 59.1362 127.466 57.0695C124.031 55.0028 119.781 55.8164 117.974 58.8926C116.392 61.5949 117.228 65.1455 119.781 67.3665C119.248 68.7918 118.601 70.271 117.833 71.7788C116.956 73.5132 115.996 75.1108 114.988 76.5895C114.565 76.4173 114.137 76.2508 113.714 76.0971C108.718 74.2084 103.402 73.015 97.8629 72.6103C96.9545 70.1284 96.1609 67.3776 95.6074 64.3563C94.4745 58.1911 94.6833 52.8251 95.2054 48.7953C98.4634 48.164 100.907 45.5748 100.907 42.4727C100.907 38.8982 97.6646 36 93.6652 36C89.6711 36 86.4288 38.8982 86.4288 42.4727C86.4288 45.6287 88.961 48.2533 92.2973 48.8265C93.023 52.7971 93.4981 58.3569 92.3756 64.8011C91.8796 67.638 91.1486 70.2235 90.2924 72.5633C84.9826 72.8666 79.8712 73.9041 75.0417 75.5762C74.3682 74.4969 73.7677 73.3637 73.23 72.0271C72.1597 69.3809 71.695 66.8989 71.5122 64.8338C74.6344 63.1887 76.2477 59.7374 75.1409 56.6838C73.9348 53.3255 69.9042 51.7284 66.1502 53.1162C62.3963 54.5041 60.334 58.3511 61.5453 61.7089C62.5895 64.6072 65.7325 66.1884 68.9905 65.677C69.9407 67.6533 70.8492 69.9329 71.5697 72.5216C71.9456 73.893 72.2327 75.2333 72.452 76.5446C68.0715 78.3011 63.9574 80.5913 60.1825 83.3321C58.1933 81.8787 56.1623 80.1908 54.1574 78.2124C49.5368 73.659 46.4511 68.9889 44.4254 65.2475C46.6704 62.7355 47.062 59.1399 45.1824 56.6622C43.0261 53.8279 38.7136 53.5283 35.5444 55.9939C32.3752 58.4589 31.5502 62.7555 33.7065 65.5893C35.607 68.0945 39.1991 68.6154 42.1908 67.002C45.1198 69.6524 48.9155 73.8349 51.8602 79.8459C53.202 82.5951 54.1418 85.2688 54.7944 87.7624C54.1888 88.3255 53.5831 88.9066 52.9984 89.4994C50.0432 92.4906 47.4118 95.8025 45.1511 99.387C43.8198 98.9982 42.4414 98.5295 41.0317 97.9542C36.4319 96.083 32.8712 93.6983 30.292 91.6205C31.3884 88.3884 30.3233 84.9006 27.5927 83.3892C24.4966 81.6711 20.4294 83.1535 18.5081 86.7005C16.5867 90.248 17.5369 94.5166 20.6382 96.2341C23.3636 97.7456 26.8304 96.7799 28.9397 94.1146C32.0724 95.2103 35.9673 96.9684 39.9979 99.855C41.1988 100.717 42.3056 101.604 43.329 102.497C40.1389 108.308 37.9147 114.732 36.8548 121.552C34.0981 121.79 31.1273 121.903 27.9425 121.805C23.3949 121.663 19.286 121.123 15.6991 120.421C15.6156 116.855 13.2557 113.869 10.0551 113.529C6.54659 113.156 3.35651 116.114 2.94405 120.138C2.52114 124.16 5.03768 127.724 8.54624 128.097C11.6737 128.429 14.5348 126.12 15.4224 122.773C19.1085 122.849 23.2436 123.181 27.7232 123.961C30.8193 124.501 33.6961 125.189 36.3432 125.954C36.2179 127.503 36.1552 129.069 36.1552 130.653C36.1552 134.415 36.505 138.095 37.1838 141.661C34.1399 143.7 29.9317 146.015 24.5853 147.639C19.8968 149.065 15.673 149.55 12.3107 149.654C11.1046 146.482 8.10246 144.504 5.05858 145.098C1.59179 145.777 -0.611493 149.545 0.150782 153.517C0.907836 157.489 4.33288 160.159 7.80489 159.481C10.8018 158.895 12.8432 155.999 12.8536 152.659C16.2995 151.525 20.3615 150.462 24.9874 149.768C30.3076 148.973 35.0745 148.86 39.0842 149.036C40.6975 153.957 42.9531 158.581 45.7359 162.814C44.4254 163.866 42.9531 164.905 41.3136 165.876C38.1549 167.736 35.1267 168.893 32.5005 169.64C30.7149 166.768 27.3943 165.419 24.5279 166.592C21.2543 167.935 19.8081 172.062 21.317 175.809C22.2568 178.161 24.1363 179.811 26.2143 180.376C27.4413 180.714 28.7413 180.673 29.9578 180.173C30.3233 180.025 30.6627 179.841 30.9759 179.621C33.3724 178.019 34.3853 174.698 33.3724 171.528C35.8576 170.231 38.7605 168.946 42.1125 167.886C44.2583 167.206 46.3102 166.711 48.242 166.341C50.0015 168.644 51.9333 170.804 54.0113 172.799C54.2097 172.988 54.4028 173.178 54.6012 173.356C53.1968 176.528 51.0822 180.382 47.8922 184.289C44.77 188.113 41.5225 190.899 38.7919 192.864C36.0508 190.899 32.464 190.94 30.2554 193.143C27.7441 195.656 27.9843 200.026 30.7984 202.906C33.6021 205.78 37.9252 206.077 40.4365 203.565C42.6137 201.386 42.7233 197.799 40.8646 195.014C43.0157 192.182 45.8194 188.986 49.401 185.833C53.2437 182.448 57.0395 179.942 60.3444 178.096C64.7197 181.243 69.5543 183.79 74.718 185.614C74.5091 187.579 74.1593 189.699 73.5903 191.926C72.3529 196.778 70.4889 200.668 68.7973 203.53C65.4871 202.859 62.2135 204.39 61.091 207.324C59.8171 210.656 61.8063 214.54 65.5341 216C69.262 217.463 73.3187 215.942 74.5927 212.604C75.7047 209.706 74.3421 206.392 71.5175 204.623C72.3163 201.172 73.5746 197.093 75.5795 192.71C76.561 190.572 77.6052 188.625 78.6755 186.848C82.6488 187.935 86.7943 188.601 91.0651 188.785C91.7647 192.169 92.3286 195.958 92.6001 200.097C93.0074 206.255 92.6784 211.707 92.0989 216.209C88.8514 216.846 86.4288 219.435 86.4288 222.527C86.4288 226.1 89.6711 229 93.6704 229C97.6698 229 100.907 226.1 100.907 222.527C100.907 219.446 98.4947 216.862 95.2681 216.214C94.7251 211.612 94.4275 206.172 94.7355 200.097C94.9496 196 95.409 192.217 95.9938 188.797C100.458 188.625 104.791 187.929 108.932 186.772C109.287 187.389 109.642 188.03 109.976 188.689C112.221 193.043 113.432 197.123 114.09 200.389C111.208 202.081 109.746 205.37 110.775 208.304C111.965 211.671 115.975 213.299 119.75 211.945C123.514 210.585 125.602 206.754 124.417 203.387C123.368 200.401 120.084 198.785 116.727 199.403C115.186 196.724 113.396 192.68 112.774 187.501C112.696 186.861 112.639 186.231 112.602 185.614C117.217 183.998 121.556 181.795 125.545 179.099C128.124 181.219 130.839 183.749 133.538 186.754C137.684 191.374 140.697 195.929 142.874 199.8C140.665 202.307 140.279 205.875 142.153 208.34C144.309 211.172 148.617 211.47 151.791 209.005C154.96 206.54 155.791 202.247 153.634 199.408C151.77 196.962 148.293 196.404 145.338 197.894C142.158 194.634 138.634 190.507 135.235 185.435C133.037 182.157 131.225 178.975 129.727 175.987C131.335 174.675 132.875 173.279 134.332 171.801C136.728 169.378 138.916 166.747 140.848 163.933C144.419 164.942 148.549 166.42 152.924 168.641C157.143 170.773 160.657 173.119 163.492 175.304C162.416 178.475 163.439 181.908 166.097 183.44C169.167 185.216 173.255 183.802 175.244 180.293C177.228 176.777 176.346 172.495 173.276 170.72C170.592 169.17 167.126 170.055 164.969 172.656C161.805 171.438 157.968 169.592 153.989 166.759C149.854 163.819 146.737 160.666 144.471 157.946C146.001 155.048 147.291 152.002 148.319 148.831C150.037 148.89 151.843 149.045 153.728 149.329C158.558 150.066 162.583 151.45 165.679 152.828C165.413 156.212 167.303 159.312 170.305 160.09C173.72 160.98 177.307 158.528 178.304 154.609C179.296 150.689 177.328 146.794 173.913 145.903C170.895 145.119 167.757 146.925 166.374 150.042C163.079 149.769 158.871 149.039 154.266 147.233C152.512 146.545 150.899 145.778 149.426 144.977C150.162 142.037 150.679 139.014 150.945 135.915C153.921 135.671 157.091 135.517 160.416 135.511C166.301 135.493 171.637 135.92 176.325 136.55C176.889 139.811 179.369 142.292 182.397 142.388C185.927 142.488 188.887 139.293 188.997 135.249C189.111 131.205 186.344 127.844 182.81 127.743Z" fill="#FA5752" fill-opacity="0.9"/>
<path d="M1046.3 55.6161C1044.49 55.562 1042.92 56.984 1042.48 58.9388C1039.67 59.1621 1036.47 59.2376 1032.95 59.0109C1030.98 58.8815 1029.12 58.6724 1027.38 58.4133C1027.39 58.0712 1027.39 57.7257 1027.39 57.3801C1027.39 55.6987 1027.28 54.0465 1027.05 52.4302C1027.94 51.7355 1029.05 51.0047 1030.39 50.3779C1032.72 49.2839 1034.91 48.8948 1036.59 48.7833C1037.41 50.7023 1039.31 51.8178 1041.13 51.3323C1043.17 50.785 1044.34 48.4198 1043.74 46.0473C1043.13 43.6752 1040.99 42.1917 1038.94 42.739C1037.08 43.2393 1035.94 45.2483 1036.21 47.3972C1034.74 48.2543 1032.55 49.183 1029.84 49.2516C1028.5 49.2874 1027.33 49.1036 1026.38 48.866C1025.78 46.357 1024.91 43.9519 1023.81 41.6841C1024.98 40.6042 1026.36 39.4592 1027.97 38.354C1030.31 36.7485 1032.57 35.6001 1034.55 34.776C1035.84 36.3235 1037.91 36.8385 1039.5 35.895C1041.32 34.8154 1041.84 32.2123 1040.65 30.0887C1039.45 27.9644 1037 27.1221 1035.17 28.2055C1033.58 29.1452 1032.99 31.2336 1033.64 33.1558C1031.94 34.5096 1029.84 35.9386 1027.33 37.2132C1025.62 38.0843 1023.99 38.7466 1022.51 39.2504C1021.3 37.1732 1019.88 35.2366 1018.29 33.4691C1018.9 31.1939 1019.93 28.5367 1021.69 25.8731C1023.35 23.3818 1025.18 21.5639 1026.75 20.2855C1028.46 21.3766 1030.62 21.2072 1031.85 19.7708C1033.25 18.1439 1032.93 15.5123 1031.13 13.8921C1029.34 12.2687 1026.75 12.2722 1025.36 13.8991C1024.13 15.3358 1024.23 17.5498 1025.51 19.1661C1024.5 20.8725 1022.97 22.9891 1020.73 25.0052C1018.26 27.2303 1015.78 28.5623 1013.89 29.3543C1011.74 27.6656 1009.4 26.2327 1006.89 25.099C1007.26 24.0658 1007.74 23.0253 1008.37 22.003C1008.87 21.1931 1009.42 20.4799 1009.97 19.8576C1011.88 20.6531 1014.01 20.0802 1014.97 18.4135C1016.06 16.5525 1015.27 14.0253 1013.21 12.7724C1011.16 11.5196 1008.62 12.0128 1007.53 13.8777C1006.59 15.5158 1007.09 17.6683 1008.62 19.0147C1008.3 19.8787 1007.91 20.7755 1007.45 21.6895C1006.93 22.7409 1006.35 23.7094 1005.75 24.6058C1005.5 24.5014 1005.24 24.4005 1004.99 24.3073C1002 23.1624 998.823 22.4389 995.511 22.1936C994.967 20.689 994.493 19.0214 994.162 17.1898C993.485 13.4524 993.61 10.1994 993.922 7.75649C995.87 7.37378 997.331 5.80419 997.331 3.92361C997.331 1.75671 995.392 -0.000241008 993.001 -0.000241008C990.613 -0.000241008 988.674 1.75671 988.674 3.92361C988.674 5.83685 990.188 7.42791 992.183 7.7754C992.617 10.1825 992.901 13.5529 992.23 17.4595C991.933 19.1793 991.496 20.7466 990.984 22.1651C987.81 22.3489 984.754 22.9779 981.866 23.9915C981.464 23.3372 981.105 22.6503 980.783 21.84C980.143 20.2358 979.865 18.7312 979.756 17.4793C981.623 16.482 982.587 14.3898 981.925 12.5387C981.204 10.5027 978.795 9.53458 976.55 10.3759C974.306 11.2172 973.073 13.5494 973.797 15.585C974.421 17.3419 976.3 18.3005 978.248 17.9905C978.816 19.1886 979.36 20.5705 979.79 22.1398C980.015 22.9712 980.187 23.7837 980.318 24.5786C977.699 25.6434 975.239 27.0318 972.982 28.6933C971.793 27.8123 970.579 26.789 969.38 25.5896C966.617 22.8293 964.772 19.9982 963.561 17.7301C964.903 16.2073 965.138 14.0275 964.014 12.5255C962.725 10.8073 960.146 10.6257 958.251 12.1204C956.357 13.6147 955.863 16.2194 957.153 17.9373C958.289 19.456 960.437 19.7718 962.225 18.7937C963.976 20.4004 966.246 22.9359 968.006 26.5799C968.809 28.2465 969.37 29.8674 969.761 31.379C969.399 31.7204 969.036 32.0727 968.687 32.432C966.92 34.2454 965.347 36.2531 963.995 38.4261C963.199 38.1903 962.375 37.9063 961.532 37.5575C958.782 36.4231 956.653 34.9775 955.111 33.7179C955.767 31.7585 955.13 29.6442 953.497 28.7279C951.646 27.6864 949.214 28.585 948.066 30.7353C946.917 32.8858 947.485 35.4736 949.339 36.5147C950.969 37.431 953.041 36.8456 954.303 35.2298C956.176 35.8941 958.504 36.9599 960.914 38.7098C961.632 39.2325 962.294 39.7702 962.906 40.3111C960.998 43.8343 959.669 47.7284 959.035 51.8626C957.387 52.0074 955.611 52.0759 953.706 52.016C950.987 51.9299 948.531 51.6029 946.386 51.1773C946.336 49.0152 944.925 47.2051 943.012 46.9991C940.914 46.773 939.007 48.5665 938.76 51.0056C938.507 53.4441 940.012 55.6046 942.11 55.8307C943.979 56.0318 945.69 54.632 946.221 52.6031C948.425 52.6489 950.897 52.8507 953.575 53.3234C955.426 53.6504 957.146 54.068 958.729 54.5314C958.654 55.4704 958.617 56.42 958.617 57.3801C958.617 59.6607 958.826 61.8913 959.232 64.0531C957.412 65.2896 954.896 66.6927 951.699 67.6775C948.896 68.5416 946.371 68.8356 944.36 68.8987C943.639 66.9761 941.844 65.7771 940.024 66.1371C937.952 66.5483 936.634 68.8327 937.09 71.2404C937.543 73.6485 939.591 75.2671 941.666 74.8558C943.458 74.501 944.679 72.745 944.685 70.7203C946.745 70.033 949.174 69.3887 951.94 68.9682C955.12 68.4862 957.97 68.4173 960.368 68.5243C961.332 71.5075 962.681 74.3108 964.345 76.8767C963.561 77.5143 962.681 78.1443 961.701 78.7329C959.812 79.8603 958.002 80.5616 956.432 81.0148C955.364 79.2735 953.379 78.4556 951.665 79.1672C949.708 79.981 948.843 82.4829 949.745 84.7545C950.307 86.18 951.431 87.1808 952.673 87.5229C953.407 87.7281 954.184 87.7028 954.911 87.4002C955.13 87.3105 955.333 87.1988 955.52 87.0655C956.953 86.0942 957.558 84.0807 956.953 82.1594C958.439 81.3729 960.174 80.594 962.178 79.9515C963.461 79.5394 964.688 79.2389 965.843 79.0148C966.895 80.4108 968.05 81.7203 969.292 82.9297C969.411 83.0443 969.527 83.1596 969.645 83.2675C968.805 85.1901 967.541 87.5264 965.634 89.8954C963.767 92.2134 961.826 93.9022 960.193 95.0935C958.554 93.9022 956.41 93.9271 955.089 95.2626C953.588 96.7858 953.731 99.4353 955.414 101.181C957.09 102.924 959.675 103.104 961.176 101.581C962.478 100.26 962.544 98.0854 961.432 96.3967C962.718 94.6797 964.395 92.7428 966.536 90.8312C968.834 88.7792 971.103 87.2599 973.079 86.1406C975.695 88.0484 978.585 89.5927 981.673 90.6982C981.548 91.8896 981.339 93.1748 980.998 94.5247C980.259 97.466 979.144 99.8241 978.133 101.559C976.154 101.153 974.196 102.081 973.525 103.859C972.764 105.879 973.953 108.234 976.182 109.119C978.411 110.006 980.836 109.084 981.598 107.06C982.263 105.303 981.448 103.294 979.759 102.222C980.237 100.13 980.989 97.6569 982.188 95.0003C982.775 93.7042 983.399 92.5234 984.039 91.4467C986.414 92.1055 988.893 92.509 991.446 92.6205C991.865 94.6724 992.202 96.9693 992.364 99.4786C992.608 103.212 992.411 106.516 992.064 109.246C990.123 109.632 988.674 111.201 988.674 113.076C988.674 115.242 990.613 117 993.004 117C995.395 117 997.331 115.242 997.331 113.076C997.331 111.208 995.888 109.641 993.959 109.249C993.635 106.459 993.457 103.161 993.641 99.4786C993.769 96.9943 994.044 94.7015 994.393 92.6278C997.062 92.5234 999.653 92.102 1002.13 91.4003C1002.34 91.7743 1002.55 92.1631 1002.75 92.5628C1004.1 95.2018 1004.82 97.6751 1005.21 99.655C1003.49 100.681 1002.62 102.675 1003.23 104.453C1003.94 106.495 1006.34 107.482 1008.6 106.66C1010.85 105.836 1012.1 103.514 1011.39 101.472C1010.76 99.6624 1008.8 98.683 1006.79 99.0574C1005.87 97.4337 1004.8 94.9821 1004.43 91.8425C1004.38 91.4541 1004.34 91.0723 1004.32 90.6982C1007.08 89.7189 1009.68 88.3834 1012.06 86.7488C1013.6 88.034 1015.23 89.5677 1016.84 91.3894C1019.32 94.1901 1021.12 96.9514 1022.42 99.2982C1021.1 100.818 1020.87 102.981 1021.99 104.475C1023.28 106.192 1025.86 106.373 1027.75 104.878C1029.65 103.384 1030.14 100.782 1028.86 99.0606C1027.74 97.5778 1025.66 97.2393 1023.9 98.1431C1021.99 96.1664 1019.89 93.6645 1017.85 90.59C1016.54 88.6028 1015.46 86.6735 1014.56 84.8624C1015.52 84.0669 1016.44 83.2208 1017.31 82.3247C1018.75 80.8556 1020.06 79.2607 1021.21 77.5547C1023.35 78.1664 1025.82 79.0628 1028.43 80.4092C1030.95 81.7018 1033.05 83.1234 1034.75 84.4483C1034.11 86.3709 1034.72 88.4516 1036.31 89.3804C1038.14 90.4571 1040.59 89.6001 1041.78 87.4726C1042.96 85.3416 1042.43 82.7455 1040.6 81.6694C1038.99 80.7298 1036.92 81.2662 1035.63 82.8429C1033.74 82.1047 1031.45 80.9853 1029.07 79.2681C1026.6 77.4862 1024.73 75.5745 1023.38 73.9255C1024.29 72.1689 1025.06 70.3222 1025.68 68.3997C1026.7 68.4359 1027.78 68.5294 1028.91 68.702C1031.8 69.1488 1034.21 69.9875 1036.06 70.8228C1035.9 72.8744 1037.03 74.7537 1038.82 75.2251C1040.86 75.7651 1043.01 74.2784 1043.6 71.9024C1044.2 69.5264 1043.02 67.1651 1040.98 66.6251C1039.18 66.1495 1037.3 67.2445 1036.47 69.134C1034.5 68.9685 1031.99 68.5259 1029.23 67.4312C1028.18 67.0139 1027.22 66.5492 1026.34 66.0634C1026.78 64.2814 1027.09 62.4486 1027.25 60.5699C1029.03 60.4223 1030.92 60.3288 1032.91 60.3249C1036.43 60.314 1039.62 60.5731 1042.42 60.9549C1042.76 62.9315 1044.24 64.4361 1046.05 64.4938C1048.16 64.555 1049.93 62.618 1050 60.1664C1050.07 57.7148 1048.41 55.6773 1046.3 55.6161Z" fill="#FA5752" fill-opacity="0.75"/>
<path d="M1168.66 410.493C1164.56 410.371 1161.03 413.58 1160.03 417.991C1153.69 418.494 1146.45 418.665 1138.51 418.153C1134.09 417.86 1129.88 417.389 1125.95 416.805C1125.97 416.033 1125.98 415.253 1125.98 414.474C1125.98 410.681 1125.71 406.952 1125.21 403.304C1127.21 401.736 1129.72 400.087 1132.76 398.674C1138.02 396.205 1142.94 395.328 1146.74 395.076C1148.6 399.405 1152.88 401.924 1156.97 400.827C1161.59 399.593 1164.23 394.255 1162.86 388.902C1161.5 383.549 1156.67 380.202 1152.05 381.436C1147.85 382.566 1145.28 387.098 1145.89 391.948C1142.57 393.882 1137.62 395.977 1131.5 396.131C1128.49 396.213 1125.84 395.798 1123.7 395.263C1122.34 389.6 1120.39 384.174 1117.89 379.057C1120.53 376.62 1123.64 374.037 1127.29 371.542C1132.57 367.92 1137.67 365.329 1142.14 363.468C1145.06 366.962 1149.71 368.124 1153.3 365.996C1157.43 363.557 1158.58 357.684 1155.89 352.892C1153.2 348.1 1147.66 346.199 1143.54 348.644C1139.95 350.764 1138.6 355.475 1140.08 359.813C1136.24 362.867 1131.52 366.092 1125.84 368.968C1121.99 370.934 1118.3 372.428 1114.95 373.565C1112.22 368.879 1109.03 364.508 1105.44 360.519C1106.82 355.386 1109.15 349.391 1113.13 343.38C1116.86 337.759 1121 333.657 1124.51 330.773C1128.39 333.234 1133.27 332.852 1136.05 329.611C1139.2 325.94 1138.48 320.002 1134.42 316.347C1130.38 312.684 1124.55 312.69 1121.4 316.363C1118.62 319.604 1118.84 324.6 1121.73 328.246C1119.45 332.097 1116.01 336.873 1110.96 341.423C1105.38 346.442 1099.79 349.448 1095.52 351.235C1090.66 347.425 1085.37 344.192 1079.72 341.634C1080.54 339.302 1081.63 336.955 1083.05 334.648C1084.2 332.82 1085.43 331.212 1086.67 329.806C1090.97 331.601 1095.79 330.31 1097.96 326.549C1100.4 322.35 1098.61 316.646 1093.97 313.821C1089.33 310.994 1083.61 312.106 1081.17 316.314C1079.03 320.011 1080.16 324.867 1083.61 327.905C1082.89 329.856 1082.02 331.878 1080.97 333.94C1079.79 336.313 1078.5 338.499 1077.14 340.52C1076.56 340.285 1076 340.058 1075.42 339.847C1068.69 337.263 1061.52 335.631 1054.04 335.078C1052.81 331.683 1051.74 327.92 1050.99 323.787C1049.46 315.354 1049.75 308.015 1050.45 302.502C1054.85 301.638 1058.14 298.097 1058.14 293.854C1058.14 288.964 1053.77 285 1048.38 285C1042.98 285 1038.61 288.964 1038.61 293.854C1038.61 298.17 1042.02 301.76 1046.52 302.544C1047.5 307.977 1048.15 315.581 1046.64 324.396C1045.97 328.276 1044.98 331.812 1043.82 335.014C1036.65 335.428 1029.75 336.848 1023.24 339.135C1022.34 337.659 1021.52 336.108 1020.79 334.28C1019.36 330.659 1018.74 327.265 1018.49 324.441C1022.7 322.19 1024.87 317.468 1023.39 313.292C1021.75 308.699 1016.32 306.513 1011.25 308.412C1006.18 310.311 1003.39 315.573 1005.04 320.167C1006.45 324.13 1010.69 326.294 1015.08 325.593C1016.36 328.297 1017.59 331.415 1018.55 334.957C1019.07 336.832 1019.45 338.666 1019.75 340.46C1013.84 342.862 1008.29 345.996 1003.2 349.745C1000.52 347.756 997.776 345.447 995.065 342.742C988.826 336.513 984.667 330.124 981.934 325.007C984.961 321.571 985.495 316.652 982.958 313.263C980.051 309.385 974.225 308.976 969.946 312.348C965.678 315.722 964.568 321.598 967.464 325.475C970.044 328.901 974.879 329.613 978.929 327.406C982.871 331.033 987.999 336.753 991.962 344.976C993.781 348.737 995.044 352.393 995.936 355.804C995.12 356.574 994.292 357.369 993.497 358.18C989.523 362.272 985.963 366.802 982.914 371.704C981.118 371.174 979.256 370.532 977.35 369.745C971.155 367.186 966.353 363.924 962.869 361.081C964.35 356.66 962.902 351.891 959.221 349.822C955.051 347.471 949.564 349.499 946.972 354.353C944.37 359.204 945.655 365.043 949.847 367.393C953.516 369.459 958.198 368.139 961.04 364.493C965.264 365.992 970.534 368.397 975.967 372.346C977.59 373.525 979.071 374.738 980.453 375.958C976.153 383.908 973.147 392.695 971.721 402.024C968.008 402.349 964.001 402.506 959.701 402.369C953.56 402.176 948.018 401.438 943.172 400.477C943.063 395.598 939.884 391.515 935.572 391.05C930.825 390.539 926.524 394.586 925.958 400.09C925.403 405.593 928.789 410.467 933.525 410.977C937.75 411.431 941.604 408.272 942.813 403.694C947.778 403.797 953.353 404.253 959.396 405.319C963.588 406.058 967.453 406.999 971.035 408.046C970.861 410.165 970.785 412.307 970.785 414.474C970.785 419.62 971.253 424.651 972.168 429.53C968.052 432.322 962.39 435.487 955.171 437.71C948.845 439.659 943.151 440.322 938.61 440.465C936.977 436.127 932.927 433.421 928.822 434.233C924.151 435.16 921.178 440.315 922.202 445.747C923.225 451.181 927.853 454.834 932.524 453.907C936.574 453.105 939.329 449.143 939.34 444.575C943.989 443.024 949.477 441.569 955.715 440.622C962.88 439.534 969.315 439.377 974.737 439.619C976.904 446.352 979.953 452.676 983.709 458.465C981.934 459.905 979.963 461.326 977.731 462.654C973.474 465.198 969.391 466.781 965.841 467.804C963.446 463.873 958.96 462.028 955.084 463.634C950.674 465.471 948.725 471.116 950.75 476.241C952.024 479.458 954.561 481.717 957.37 482.488C959.025 482.951 960.779 482.895 962.423 482.213C962.902 482.009 963.37 481.757 963.794 481.456C967.017 479.265 968.389 474.721 967.028 470.386C970.382 468.611 974.302 466.853 978.809 465.404C981.716 464.474 984.482 463.795 987.084 463.29C989.458 466.44 992.071 469.396 994.869 472.123C995.131 472.383 995.403 472.644 995.664 472.886C993.77 477.224 990.917 482.496 986.616 487.841C982.402 493.073 978.025 496.882 974.334 499.572C970.643 496.882 965.798 496.94 962.825 499.953C959.428 503.389 959.755 509.368 963.555 513.307C967.333 517.238 973.169 517.646 976.555 514.209C979.506 511.227 979.648 506.322 977.143 502.512C980.04 498.636 983.818 494.267 988.641 489.953C993.835 485.323 998.952 481.895 1003.42 479.369C1009.32 483.674 1015.84 487.158 1022.8 489.653C1022.53 492.341 1022.06 495.241 1021.28 498.288C1019.61 504.925 1017.1 510.245 1014.83 514.161C1010.35 513.242 1005.93 515.338 1004.42 519.351C1002.71 523.908 1005.4 529.221 1010.43 531.219C1015.45 533.217 1020.91 531.137 1022.64 526.572C1024.14 522.608 1022.31 518.076 1018.49 515.654C1019.56 510.935 1021.27 505.354 1023.97 499.359C1025.3 496.436 1026.71 493.771 1028.14 491.343C1033.51 492.829 1039.1 493.74 1044.87 493.991C1045.8 498.622 1046.57 503.803 1046.94 509.465C1047.49 517.888 1047.05 525.346 1046.26 531.503C1041.88 532.373 1038.61 535.914 1038.61 540.147C1038.61 545.037 1042.97 549 1048.38 549C1053.77 549 1058.14 545.037 1058.14 540.147C1058.14 535.93 1054.88 532.396 1050.53 531.511C1049.8 525.215 1049.41 517.775 1049.82 509.465C1050.1 503.859 1050.73 498.685 1051.51 494.007C1057.54 493.771 1063.39 492.821 1068.97 491.236C1069.45 492.081 1069.92 492.959 1070.38 493.861C1073.42 499.815 1075.05 505.396 1075.93 509.863C1072.04 512.178 1070.06 516.678 1071.47 520.692C1073.06 525.297 1078.48 527.523 1083.56 525.67C1088.64 523.81 1091.47 518.571 1089.87 513.965C1088.45 509.88 1084.02 507.669 1079.49 508.515C1077.41 504.851 1075 499.319 1074.16 492.236C1074.05 491.358 1073.97 490.498 1073.93 489.653C1080.15 487.443 1086 484.43 1091.39 480.742C1094.87 483.641 1098.52 487.102 1102.16 491.212C1107.76 497.532 1111.83 503.763 1114.77 509.059C1111.79 512.487 1111.27 517.369 1113.79 520.74C1116.71 524.614 1122.52 525.021 1126.8 521.649C1131.07 518.279 1132.18 512.406 1129.28 508.524C1126.77 505.176 1122.08 504.412 1118.09 506.452C1113.8 501.992 1109.04 496.347 1104.46 489.409C1101.5 484.925 1099.05 480.572 1097.03 476.485C1099.2 474.69 1101.27 472.781 1103.25 470.758C1106.47 467.444 1109.42 463.845 1112.04 459.995C1116.86 461.377 1122.42 463.4 1128.33 466.437C1134.02 469.354 1138.77 472.562 1142.59 475.551C1141.14 479.889 1142.51 484.584 1146.11 486.679C1150.24 489.109 1155.76 487.175 1158.44 482.375C1161.12 477.566 1159.92 471.709 1155.79 469.279C1152.17 467.16 1147.48 468.371 1144.58 471.929C1140.31 470.262 1135.13 467.737 1129.76 463.862C1124.19 459.841 1119.97 455.527 1116.93 451.807C1118.98 447.844 1120.73 443.677 1122.12 439.338C1124.43 439.42 1126.88 439.631 1129.4 440.021C1135.93 441.028 1141.36 442.92 1145.54 444.805C1145.18 449.436 1147.73 453.676 1151.77 454.74C1156.38 455.959 1161.22 452.603 1162.57 447.243C1163.91 441.882 1161.26 436.553 1156.63 435.334C1152.58 434.261 1148.35 436.731 1146.47 440.995C1142.03 440.622 1136.34 439.622 1130.12 437.154C1127.77 436.211 1125.59 435.163 1123.61 434.066C1124.6 430.046 1125.3 425.91 1125.66 421.67C1129.68 421.337 1133.94 421.126 1138.44 421.117C1146.37 421.094 1153.58 421.678 1159.9 422.539C1160.66 426.999 1164.01 430.395 1168.09 430.526C1172.86 430.663 1176.85 426.292 1177 420.761C1177.15 415.23 1173.41 410.631 1168.66 410.493Z" fill="#FA5752" fill-opacity="0.6"/>
</svg>
