<svg width="50" height="50" viewBox="0 0 75 75" fill="none" xmlns="http://www.w3.org/2000/svg">
<circle opacity="0.15" cx="37.5" cy="37.5" r="37.5" fill="#FA5652"/>
<path d="M20.048 53.3223C18.024 53.3223 16.176 52.941 14.504 52.1783C12.832 51.4157 11.4093 50.345 10.236 48.9663C9.06267 47.5877 8.13867 45.9157 7.464 43.9503C6.81867 41.985 6.496 39.8143 6.496 37.4383C6.496 35.0917 6.81867 32.9357 7.464 30.9703C8.13867 29.005 9.06267 27.333 10.236 25.9543C11.4387 24.5757 12.876 23.505 14.548 22.7423C16.22 21.9797 18.0533 21.5983 20.048 21.5983C22.072 21.5983 23.92 21.9797 25.592 22.7423C27.264 23.505 28.6867 24.5757 29.86 25.9543C31.0333 27.333 31.9427 29.005 32.588 30.9703C33.2627 32.9357 33.6 35.0917 33.6 37.4383C33.6 39.8143 33.2773 41.985 32.632 43.9503C31.9867 45.9157 31.0627 47.5877 29.86 48.9663C28.6867 50.345 27.264 51.4157 25.592 52.1783C23.92 52.941 22.072 53.3223 20.048 53.3223ZM20.048 48.0863C22.424 48.0863 24.3013 47.133 25.68 45.2263C27.0587 43.3197 27.748 40.7237 27.748 37.4383C27.748 34.2117 27.044 31.645 25.636 29.7383C24.2573 27.8023 22.3947 26.8343 20.048 26.8343C17.7013 26.8343 15.8387 27.8023 14.46 29.7383C13.0813 31.645 12.392 34.2117 12.392 37.4383C12.392 40.7237 13.0813 43.3197 14.46 45.2263C15.8387 47.133 17.7013 48.0863 20.048 48.0863ZM59.7171 22.0823V40.6063H63.5011V45.6663H59.7171V52.8823H53.6891V45.6663H36.3091V40.8263L52.7651 22.0823H59.7171ZM43.2611 40.6063H53.6891V28.7703L43.2611 40.6063Z" fill="#FA5652"/>
</svg>
